<svg xmlns="http://www.w3.org/2000/svg" viewBox="0 0 512 512">
  <defs>
    <linearGradient id="grad1" x1="0%" y1="0%" x2="100%" y2="100%">
      <stop offset="0%" style="stop-color:#667eea;stop-opacity:1" />
      <stop offset="100%" style="stop-color:#764ba2;stop-opacity:1" />
    </linearGradient>
  </defs>
  <!-- Background -->
  <rect width="512" height="512" rx="80" fill="url(#grad1)"/>
  <!-- Gear/Cog Icon representing Auto Parts -->
  <g transform="translate(256, 256)">
    <!-- Outer gear teeth -->
    <path d="M0,-180 L20,-160 L20,-120 L40,-120 L40,-160 L60,-180 L60,-160 L80,-140 L80,-100 L100,-100 L100,-140 L120,-160 L140,-140 L120,-120 L120,-80 L140,-60 L160,-60 L140,-40 L160,-20 L180,0 L160,20 L140,40 L160,60 L140,60 L120,80 L120,120 L140,140 L120,160 L100,140 L100,100 L80,100 L80,140 L60,160 L60,180 L40,160 L40,120 L20,120 L20,160 L0,180 L-20,160 L-20,120 L-40,120 L-40,160 L-60,180 L-60,160 L-80,140 L-80,100 L-100,100 L-100,140 L-120,160 L-140,140 L-120,120 L-120,80 L-140,60 L-160,60 L-140,40 L-160,20 L-180,0 L-160,-20 L-140,-40 L-160,-60 L-140,-60 L-120,-80 L-120,-120 L-140,-140 L-120,-160 L-100,-140 L-100,-100 L-80,-100 L-80,-140 L-60,-160 L-60,-180 L-40,-160 L-40,-120 L-20,-120 L-20,-160 Z" fill="white" opacity="0.9"/>
    <!-- Inner circle -->
    <circle cx="0" cy="0" r="70" fill="url(#grad1)"/>
    <!-- Center bolt -->
    <circle cx="0" cy="0" r="35" fill="white"/>
    <text x="0" y="12" font-family="Arial, sans-serif" font-size="36" font-weight="bold" fill="#667eea" text-anchor="middle">AP</text>
  </g>
</svg>
